HIERARCHY
ROOT Hips
{
  OFFSET 5.84602e-005 68.8428 3.50346
  CHANNELS 6 Xposition Yposition Zposition Zrotation Xrotation Yrotation
  JOINT Spine
  {
    OFFSET 0 8.597 -4.6522
    CHANNELS 3 Zrotation Xrotation Yrotation
    JOINT Spine1
    {
      OFFSET 0 7.8454 0.4098
      CHANNELS 3 Zrotation Xrotation Yrotation
      JOINT Spine2
      {
        OFFSET 0 9.7078 -2.1609
        CHANNELS 3 Zrotation Xrotation Yrotation
        JOINT Neck
        {
          OFFSET 0 21.8761 -0.4549
          CHANNELS 3 Zrotation Xrotation Yrotation
          JOINT Head
          {
            OFFSET 0 12.3537 3.3602
            CHANNELS 3 Zrotation Xrotation Yrotation
            End Site
            {
              OFFSET 0.0001 18.9506 0.5657
            }
          }
        }
        JOINT LeftShoulder
        {
          OFFSET 2.2086 21.1115 7.2329
          CHANNELS 3 Zrotation Xrotation Yrotation
          JOINT LeftArm
          {
            OFFSET 13.1193 3.0282 -4.8998
            CHANNELS 3 Zrotation Xrotation Yrotation
            JOINT LeftForeArm
            {
              OFFSET 27.4081 -0.0973053 -0.2375
              CHANNELS 3 Zrotation Xrotation Yrotation
              JOINT LeftHand
              {
                OFFSET 22.8641 0.0662994 -0.1369
                CHANNELS 3 Zrotation Xrotation Yrotation
                JOINT LeftHandIndex1
                {
                  OFFSET 8.8614 0.775009 2.4612
                  CHANNELS 3 Zrotation Xrotation Yrotation
                  JOINT LeftHandIndex2
                  {
                    OFFSET 3.3146 -0.808304 0.5841
                    CHANNELS 3 Zrotation Xrotation Yrotation
                    JOINT LeftHandIndex3
                    {
                      OFFSET 2.2628 -0.552002 0.3989
                      CHANNELS 3 Zrotation Xrotation Yrotation
                      End Site
                      {
                        OFFSET 1.6102 -0.4807 0.2612
                      }
                    }
                  }
                }
                JOINT LeftHandMiddle1
                {
                  OFFSET 8.9937 0.895004 0.2143
                  CHANNELS 3 Zrotation Xrotation Yrotation
                  JOINT LeftHandMiddle2
                  {
                    OFFSET 4.0984 0.0113983 -0.0242
                    CHANNELS 3 Zrotation Xrotation Yrotation
                    JOINT LeftHandMiddle3
                    {
                      OFFSET 2.2716 0.00689697 -0.0138001
                      CHANNELS 3 Zrotation Xrotation Yrotation
                      End Site
                      {
                        OFFSET 2.0404 -0.1441 0.0027
                      }
                    }
                  }
                }
                JOINT LeftHandRing1
                {
                  OFFSET 8.5234 0.597198 -2.0164
                  CHANNELS 3 Zrotation Xrotation Yrotation
                  JOINT LeftHandRing2
                  {
                    OFFSET 3.7188 -0.188293 -0.2328
                    CHANNELS 3 Zrotation Xrotation Yrotation
                    JOINT LeftHandRing3
                    {
                      OFFSET 2.1191 -0.106598 -0.1332
                      CHANNELS 3 Zrotation Xrotation Yrotation
                      End Site
                      {
                        OFFSET 1.8737 -0.2304 -0.0886
                      }
                    }
                  }
                }
                JOINT LeftHandPinky1
                {
                  OFFSET 7.9094 -0.601089 -3.4825
                  CHANNELS 3 Zrotation Xrotation Yrotation
                  JOINT LeftHandPinky2
                  {
                    OFFSET 2.2874 -0.477005 -0.6314
                    CHANNELS 3 Zrotation Xrotation Yrotation
                    JOINT LeftHandPinky3
                    {
                      OFFSET 1.6774 -0.349396 -0.4633
                      CHANNELS 3 Zrotation Xrotation Yrotation
                      End Site
                      {
                        OFFSET 1.4888 -0.4091 -0.3416
                      }
                    }
                  }
                }
                JOINT LeftHandThumb1
                {
                  OFFSET 1.833 -1.3875 1.3896
                  CHANNELS 3 Zrotation Xrotation Yrotation
                  JOINT LeftHandThumb2
                  {
                    OFFSET 3.4129 -1.121 2.5732
                    CHANNELS 3 Zrotation Xrotation Yrotation
                    JOINT LeftHandThumb3
                    {
                      OFFSET 2.2474 -0.804199 1.6192
                      CHANNELS 3 Zrotation Xrotation Yrotation
                      End Site
                      {
                        OFFSET 1.6527 -0.5689 1.1317
                      }
                    }
                  }
                }
              }
            }
          }
        }
        JOINT RightShoulder
        {
          OFFSET -2.2086 21.1115 7.2329
          CHANNELS 3 Zrotation Xrotation Yrotation
          JOINT RightArm
          {
            OFFSET -13.1216 3.0287 -4.9007
            CHANNELS 3 Zrotation Xrotation Yrotation
            JOINT RightForeArm
            {
              OFFSET -27.4081 -0.0973053 -0.2375
              CHANNELS 3 Zrotation Xrotation Yrotation
              JOINT RightHand
              {
                OFFSET -22.8641 0.0664063 -0.1369
                CHANNELS 3 Zrotation Xrotation Yrotation
                JOINT RightHandIndex1
                {
                  OFFSET -8.8614 0.774994 2.4612
                  CHANNELS 3 Zrotation Xrotation Yrotation
                  JOINT RightHandIndex2
                  {
                    OFFSET -3.3146 -0.808304 0.5841
                    CHANNELS 3 Zrotation Xrotation Yrotation
                    JOINT RightHandIndex3
                    {
                      OFFSET -2.2628 -0.552002 0.3989
                      CHANNELS 3 Zrotation Xrotation Yrotation
                      End Site
                      {
                        OFFSET -1.6102 -0.4807 0.2612
                      }
                    }
                  }
                }
                JOINT RightHandMiddle1
                {
                  OFFSET -8.9937 0.894989 0.2143
                  CHANNELS 3 Zrotation Xrotation Yrotation
                  JOINT RightHandMiddle2
                  {
                    OFFSET -4.0984 0.0113983 -0.0242
                    CHANNELS 3 Zrotation Xrotation Yrotation
                    JOINT RightHandMiddle3
                    {
                      OFFSET -2.2716 0.00691223 -0.0138001
                      CHANNELS 3 Zrotation Xrotation Yrotation
                      End Site
                      {
                        OFFSET -2.0404 -0.1441 0.0027
                      }
                    }
                  }
                }
                JOINT RightHandRing1
                {
                  OFFSET -8.5234 0.597198 -2.0164
                  CHANNELS 3 Zrotation Xrotation Yrotation
                  JOINT RightHandRing2
                  {
                    OFFSET -3.7188 -0.188309 -0.2328
                    CHANNELS 3 Zrotation Xrotation Yrotation
                    JOINT RightHandRing3
                    {
                      OFFSET -2.1191 -0.106598 -0.1332
                      CHANNELS 3 Zrotation Xrotation Yrotation
                      End Site
                      {
                        OFFSET -1.8737 -0.2304 -0.0886
                      }
                    }
                  }
                }
                JOINT RightHandPinky1
                {
                  OFFSET -7.9094 -0.601105 -3.4825
                  CHANNELS 3 Zrotation Xrotation Yrotation
                  JOINT RightHandPinky2
                  {
                    OFFSET -2.2874 -0.477005 -0.6314
                    CHANNELS 3 Zrotation Xrotation Yrotation
                    JOINT RightHandPinky3
                    {
                      OFFSET -1.6774 -0.349396 -0.4633
                      CHANNELS 3 Zrotation Xrotation Yrotation
                      End Site
                      {
                        OFFSET -1.4888 -0.4091 -0.3416
                      }
                    }
                  }
                }
                JOINT RightHandThumb1
                {
                  OFFSET -1.833 -1.38751 1.3896
                  CHANNELS 3 Zrotation Xrotation Yrotation
                  JOINT RightHandThumb2
                  {
                    OFFSET -3.41299 -1.12099 2.5732
                    CHANNELS 3 Zrotation Xrotation Yrotation
                    JOINT RightHandThumb3
                    {
                      OFFSET -2.24741 -0.804108 1.6192
                      CHANNELS 3 Zrotation Xrotation Yrotation
                      End Site
                      {
                        OFFSET -1.6527 -0.5689 1.1317
                      }
                    }
                  }
                }
              }
            }
          }
        }
      }
    }
  }
  JOINT RightUpLeg
  {
    OFFSET -9.1966 3.8861 -0.7581
    CHANNELS 3 Zrotation Xrotation Yrotation
    JOINT RightLeg
    {
      OFFSET -0.7359 -41.0265 0
      CHANNELS 3 Zrotation Xrotation Yrotation
      JOINT RightFoot
      {
        OFFSET 0 -40.2855 0
        CHANNELS 3 Zrotation Xrotation Yrotation
        JOINT RightToeBase
        {
          OFFSET 0 -5.6122 11.7359
          CHANNELS 3 Zrotation Xrotation Yrotation
          End Site
          {
            OFFSET 0 0 7.8731
          }
        }
      }
    }
  }
  JOINT LeftUpLeg
  {
    OFFSET 9.1965 3.8864 -0.7581
    CHANNELS 3 Zrotation Xrotation Yrotation
    JOINT LeftLeg
    {
      OFFSET 0.7359 -41.0268 0
      CHANNELS 3 Zrotation Xrotation Yrotation
      JOINT LeftFoot
      {
        OFFSET 0 -40.2855 0
        CHANNELS 3 Zrotation Xrotation Yrotation
        JOINT LeftToeBase
        {
          OFFSET 0 -5.6122 11.7359
          CHANNELS 3 Zrotation Xrotation Yrotation
          End Site
          {
            OFFSET 0 0 7.8731
          }
        }
      }
    }
  }
}
MOTION
Frames:	4
Frame Time:	0.0333333
-5.65434 25.0849 1.61354 0.0658831 33.0254 -178.22 -1.35576 5.90958 -1.35634 -2.59059 11.8481 -2.59181 -2.59059 11.8481 -2.59181 -15.385 -12.6645 -13.4526 -14.6707 -15.0662 -14.0376 -19.93 -17.2302 -13.9273 -12.9699 -20.3749 -29.6909 -28.3531 15.5567 -56.9759 -42.6226 -25.5549 16.7575 1.20654e-006 -7.18618e-007 -9.68254e-007 1.20654e-006 -7.18618e-007 -9.68254e-007 1.80981e-006 -1.07793e-006 -1.45238e-006 1.20654e-006 -7.18618e-007 -9.68254e-007 -0.014557 -8.63755e-005 1.09415e-007 1.80983e-006 -1.07774e-006 -1.45252e-006 1.20654e-006 -7.18618e-007 -9.68254e-007 -0.0187249 -0.00116572 5.12965e-005 1.80982e-006 -1.07769e-006 -1.45258e-006 1.20654e-006 -7.18618e-007 -9.68254e-007 -0.0122633 -0.00324406 0.000673888 1.80978e-006 -1.07778e-006 -1.45255e-006 1.20654e-006 -7.18618e-007 -9.68254e-007 1.20654e-006 -7.18618e-007 -9.68254e-007 1.80981e-006 -1.07793e-006 -1.45238e-006 13.0409 -22.4143 7.78833 16.3288 -14.8781 47.3328 23.3806 17.9171 75.3976 25.4771 -36.8361 6.27485 -9.09702e-007 8.4512e-008 1.33993e-006 -2.40949e-006 3.14277e-006 6.07287e-006 -9.09702e-007 8.45123e-008 1.33993e-006 -9.09702e-007 8.4512e-008 1.33993e-006 0.0150112 -8.85637e-005 8.05168e-006 -9.08626e-007 8.46812e-008 1.33992e-006 -9.09702e-007 8.4512e-008 1.33993e-006 0.0190193 -0.00118951 -5.25241e-005 -1.60214e-006 -2.99727e-006 -2.89089e-006 -9.09702e-007 8.4512e-008 1.33993e-006 0.0122907 -0.00325651 -0.000675791 -1.60203e-006 -2.99706e-006 -2.89102e-006 -9.09702e-007 8.4512e-008 1.33993e-006 -2.40949e-006 3.14277e-006 6.07287e-006 -9.09702e-007 8.45123e-008 1.33993e-006 -14.1608 32.3326 5.87626 149.197 83.3478 -107.826 6.42693 47.1111 -43.7886 4.51157e-007 -3.38685e-007 3.43549e-006 110.083 -45.8158 78.2074 176.187 61.335 137.661 4.04188 34.3252 32.3358 -1.75438e-006 1.05446e-006 1.64473e-006 
-5.65423 25.1093 1.59981 0.0652301 32.5493 -178.221 -1.37284 5.66093 -1.35219 -2.62979 11.3515 -2.58611 -2.62979 11.3515 -2.58611 -15.3882 -12.7107 -13.4656 -14.7155 -15.2464 -13.93 -20.1942 -16.688 -13.4124 -12.9699 -20.3749 -29.6909 -28.5956 15.913 -57.6353 -42.2465 -25.7032 17.497 2.11146e-006 -1.2581e-006 -1.69397e-006 1.59028e-014 -4.09993e-015 2.04997e-015 2.84088e-006 -3.82527e-007 1.6871e-006 2.11146e-006 -1.2581e-006 -1.69397e-006 -0.0146548 -8.47397e-005 7.20637e-006 3.80219e-006 -3.09809e-006 5.19559e-006 2.11146e-006 -1.2581e-006 -1.69397e-006 -0.0187168 -0.00116832 6.0536e-005 2.84114e-006 -3.82789e-007 1.68701e-006 2.11146e-006 -1.2581e-006 -1.69397e-006 -0.0122459 -0.00324633 0.000677302 2.84108e-006 -3.82682e-007 1.68697e-006 2.11146e-006 -1.2581e-006 -1.69397e-006 1.59028e-014 -4.09993e-015 2.04997e-015 2.84088e-006 -3.82527e-007 1.6871e-006 13.2287 -21.6489 7.43593 16.3288 -14.8781 47.3328 23.4179 18.0487 75.686 25.3864 -36.7213 6.04689 1.48668e-006 5.36364e-007 -5.93299e-007 1.02619e-006 2.3732e-006 2.14546e-006 1.48668e-006 5.36364e-007 -5.93299e-007 1.48668e-006 5.36364e-007 -5.93299e-007 0.0150178 -9.21446e-005 9.06556e-007 1.48671e-006 5.36286e-007 -5.9337e-007 1.48668e-006 5.36364e-007 -5.93299e-007 0.0190914 -0.00118983 -5.69946e-005 1.48671e-006 5.36263e-007 -5.93404e-007 1.48668e-006 5.36364e-007 -5.93299e-007 0.0123131 -0.00325784 -0.000678294 1.48669e-006 5.36302e-007 -5.934e-007 1.48668e-006 5.36364e-007 -5.93299e-007 1.02619e-006 2.3732e-006 2.14546e-006 1.48668e-006 5.36364e-007 -5.93299e-007 -14.0536 31.9252 5.75311 149.189 83.3496 -107.817 6.4285 47.112 -43.7891 3.90954e-007 7.12174e-008 -1.53953e-007 110.276 -45.9374 78.3991 176.177 61.3954 137.65 4.7387 33.2455 31.8155 -1.74951e-007 2.84684e-007 2.03214e-006 
-5.65413 25.1341 1.58655 0.064567 32.0734 -178.223 -1.38975 5.41262 -1.34803 -2.66863 10.8551 -2.58061 -2.66863 10.8551 -2.58062 -15.3905 -12.7568 -13.4787 -14.7599 -15.4266 -13.8224 -20.4626 -16.1482 -12.8963 -12.9699 -20.3749 -29.6909 -28.8341 16.2718 -58.2941 -41.8678 -25.8471 18.2384 -6.033e-007 3.59583e-007 4.83839e-007 6.36111e-015 -2.55935e-015 -1.62755e-015 -6.033e-007 3.59583e-007 4.83839e-007 -6.033e-007 3.59583e-007 4.83839e-007 -0.0146195 -8.76493e-005 -3.1594e-008 -6.03305e-007 3.59521e-007 4.83886e-007 -6.033e-007 3.59583e-007 4.83839e-007 -0.0187358 -0.00117249 5.73491e-005 -6.03301e-007 3.59504e-007 4.83904e-007 -6.033e-007 3.59583e-007 4.83839e-007 -0.0122752 -0.00325445 0.000677839 -6.03288e-007 3.59534e-007 4.83895e-007 -6.033e-007 3.59583e-007 4.83839e-007 6.36111e-015 -2.55935e-015 -1.62755e-015 -6.033e-007 3.59583e-007 4.83839e-007 13.4204 -20.8847 7.08273 16.3288 -14.8781 47.3328 23.4546 18.1805 75.9745 25.2964 -36.6061 5.81955 -4.59442e-007 1.83423e-006 2.73778e-006 1.18526e-006 -5.13737e-007 2.97383e-006 -9.14792e-007 8.95793e-008 1.34242e-006 -4.59442e-007 1.83423e-006 2.73778e-006 0.0149526 -9.16902e-005 -3.56901e-007 -4.6025e-007 1.83459e-006 2.73754e-006 -4.59442e-007 1.83423e-006 2.73778e-006 0.0189567 -0.00118509 -5.30984e-005 -9.13421e-007 8.97161e-008 1.34241e-006 -4.59442e-007 1.83423e-006 2.73778e-006 0.0121581 -0.00321749 -0.000671559 -4.60035e-007 1.83469e-006 2.73764e-006 -4.59442e-007 1.83423e-006 2.73778e-006 1.18526e-006 -5.13737e-007 2.97383e-006 -9.14792e-007 8.95793e-008 1.34242e-006 -13.948 31.5176 5.63139 149.18 83.3513 -107.808 6.43005 47.113 -43.7896 -5.69829e-007 3.12803e-006 2.00067e-007 110.471 -46.0591 78.5931 176.167 61.4553 137.639 5.41478 32.162 31.3176 -7.63056e-007 1.48215e-007 -3.43309e-006 
-5.65404 25.1591 1.57376 0.063896 31.5975 -178.224 -1.40649 5.16438 -1.34387 -2.70711 10.3591 -2.57533 -2.70711 10.3591 -2.57533 -15.3936 -12.8029 -13.4917 -14.8041 -15.6071 -13.7149 -20.7353 -15.6109 -12.3792 -12.9699 -20.3749 -29.6909 -29.0687 16.6332 -58.9524 -41.4868 -25.9866 18.9815 -1.20671e-006 7.19381e-007 9.67333e-007 -1.20671e-006 7.19381e-007 9.67333e-007 -1.20671e-006 7.19381e-007 9.67333e-007 -1.20671e-006 7.19381e-007 9.67333e-007 -0.0146557 -8.46125e-005 4.51885e-006 -1.20672e-006 7.19258e-007 9.67426e-007 -1.20671e-006 7.19381e-007 9.67333e-007 -0.0187024 -0.00116558 5.62575e-005 -1.20671e-006 7.19223e-007 9.67463e-007 -1.20671e-006 7.19381e-007 9.67333e-007 -0.012288 -0.00325238 0.000680446 -1.20668e-006 7.19283e-007 9.67445e-007 -1.20671e-006 7.19381e-007 9.67333e-007 -1.20671e-006 7.19381e-007 9.67333e-007 -1.20671e-006 7.19381e-007 9.67333e-007 13.6161 -20.122 6.72869 16.3288 -14.8781 47.3328 23.4906 18.3125 76.2631 25.207 -36.4907 5.59275 2.97435e-006 1.07227e-006 -1.18395e-006 1.90208e-006 4.04663e-006 -6.69553e-007 -3.0323e-007 -1.05053e-006 3.56633e-006 2.97435e-006 1.07227e-006 -1.18395e-006 0.0150071 -8.80377e-005 -2.29021e-006 -3.03121e-007 -1.05006e-006 3.56646e-006 2.97435e-006 1.07227e-006 -1.18395e-006 0.0190548 -0.00119054 -5.8243e-005 -3.03057e-007 -1.04995e-006 3.5665e-006 2.97435e-006 1.07227e-006 -1.18395e-006 0.0123183 -0.00325213 -0.000671799 -3.03035e-007 -1.05017e-006 3.56644e-006 2.97435e-006 1.07227e-006 -1.18395e-006 1.90208e-006 4.04663e-006 -6.69553e-007 -3.0323e-007 -1.05053e-006 3.56633e-006 -13.8438 31.1099 5.51112 149.171 83.353 -107.799 6.43159 47.114 -43.7901 -1.47166e-007 3.84046e-006 5.21092e-007 110.669 -46.181 78.7897 176.157 61.5148 137.628 6.07107 31.0752 30.8413 5.16503e-008 -1.08759e-008 -1.98815e-006 
